HIERARCHY
ROOT root
{
	OFFSET 0.000000 0.000000 0.000000
	CHANNELS 6 Xposition Yposition Zposition Zrotation Yrotation Xrotation
	JOINT lhip
	{
		OFFSET 0.058581 -0.082280 -0.017664
		CHANNELS 3 Zrotation Yrotation Xrotation
		JOINT lknee
		{
			OFFSET 0.043451 -0.386469 0.008037
			CHANNELS 3 Zrotation Yrotation Xrotation
			JOINT lankle
			{
				OFFSET -0.014790 -0.426874 -0.037428
				CHANNELS 3 Zrotation Yrotation Xrotation
				JOINT ltoe
				{
					OFFSET 0.041054 -0.060286 0.122042
					CHANNELS 3 Zrotation Yrotation Xrotation
					End Site
					{
						OFFSET 0.000000 0.000000 0.000000
					}
				}
			}
		}
	}
	JOINT rhip
	{
		OFFSET -0.060310 -0.090513 -0.013543
		CHANNELS 3 Zrotation Yrotation Xrotation
		JOINT rknee
		{
			OFFSET -0.043257 -0.383688 -0.004843
			CHANNELS 3 Zrotation Yrotation Xrotation
			JOINT rankle
			{
				OFFSET 0.019056 -0.420046 -0.034562
				CHANNELS 3 Zrotation Yrotation Xrotation
				JOINT rtoe
				{
					OFFSET -0.034840 -0.062106 0.130323
					CHANNELS 3 Zrotation Yrotation Xrotation
					End Site
					{
						OFFSET 0.000000 0.000000 0.000000
					}
				}
			}
		}
	}
	JOINT lowerback
	{
		OFFSET 0.004439 0.124404 -0.038385
		CHANNELS 3 Zrotation Yrotation Xrotation
		JOINT upperback
		{
			OFFSET 0.004488 0.137956 0.026820
			CHANNELS 3 Zrotation Yrotation Xrotation
			JOINT chest
			{
				OFFSET -0.002265 0.056032 0.002855
				CHANNELS 3 Zrotation Yrotation Xrotation
				JOINT lowerneck
				{
					OFFSET -0.013390 0.211636 -0.033468
					CHANNELS 3 Zrotation Yrotation Xrotation
					JOINT upperneck
					{
						OFFSET 0.010113 0.088937 0.050410
						CHANNELS 3 Zrotation Yrotation Xrotation
						End Site
						{
							OFFSET 0.000000 0.000000 0.000000
						}
					}
				}
				JOINT lclavicle
				{
					OFFSET 0.071702 0.114000 -0.018898
					CHANNELS 3 Zrotation Yrotation Xrotation
					JOINT lshoulder
					{
						OFFSET 0.122921 0.045205 -0.019046
						CHANNELS 3 Zrotation Yrotation Xrotation
						JOINT lelbow
						{
							OFFSET 0.255332 -0.015649 -0.022946
							CHANNELS 3 Zrotation Yrotation Xrotation
							JOINT lwrist
							{
								OFFSET 0.265709 0.012698 -0.007375
								CHANNELS 3 Zrotation Yrotation Xrotation
								End Site
								{
									OFFSET 0.000000 0.000000 0.000000
								}
							}
						}
					}
				}
				JOINT rclavicle
				{
					OFFSET -0.082954 0.112472 -0.023707
					CHANNELS 3 Zrotation Yrotation Xrotation
					JOINT rshoulder
					{
						OFFSET -0.113228 0.046853 -0.008472
						CHANNELS 3 Zrotation Yrotation Xrotation
						JOINT relbow
						{
							OFFSET -0.260127 -0.014369 -0.031269
							CHANNELS 3 Zrotation Yrotation Xrotation
							JOINT rwrist
							{
								OFFSET -0.269108 0.006794 -0.006027
								CHANNELS 3 Zrotation Yrotation Xrotation
								End Site
								{
									OFFSET 0.000000 0.000000 0.000000
								}
							}
						}
					}
				}
			}
		}
	}
}
MOTION
Frames: 14
Frame Time: 0.033333
0.781236 -1.087642 0.896347 177.746669 3.254778 98.426128 9.524873 1.279614 -42.577286 -1.021535 18.307947 97.688316 3.455111 10.327176 -11.987439 0.000000 -0.000000 0.000000 -1.543798 -1.729812 -4.735927 9.450404 3.772984 41.521279 -3.909471 -6.188097 -30.026700 0.000000 -0.000000 0.000000 -2.269543 10.860975 18.284443 4.200594 -0.288902 4.483909 1.133225 1.982218 -1.461666 3.262720 0.757430 -13.953361 -6.369418 2.293902 -13.164995 -28.788599 4.325912 15.093730 -45.510249 43.313550 8.853687 -35.151919 -40.637540 58.153504 -1.217235 -11.681209 -2.555096 23.638806 16.169027 0.109405 27.580939 26.118076 -1.252928 -105.600459 67.191333 -87.528999 -18.904235 11.605026 10.220173 
0.741456 -0.946375 0.914048 176.358787 2.089838 99.540967 13.125460 -1.170597 -50.236032 -2.285019 21.983911 78.799388 4.782912 9.739051 -10.852412 0.000000 -0.000000 0.000000 -10.267085 -5.125384 6.906969 9.912376 9.357256 30.790910 8.227626 3.798348 -8.408782 0.000000 -0.000000 0.000000 -4.699676 17.391891 13.520889 4.402419 -0.005705 9.064553 1.351265 4.410005 -2.148190 2.056483 -1.452178 -15.912987 -2.644237 -5.093838 -12.484579 -26.145516 4.677738 15.585464 -41.115260 42.201302 12.270265 -41.563111 -48.732438 60.523148 -6.683333 -13.891957 -7.164470 26.391346 15.838176 2.659404 22.379636 22.657735 -2.656153 -62.131779 65.653835 -45.516010 -3.427181 14.046460 27.884193 
0.702972 -0.807055 0.928796 177.456062 2.718577 98.752006 13.886509 -2.413043 -51.383409 -5.962219 19.150841 54.344844 3.551668 8.597066 -9.462673 0.000000 -0.000000 0.000000 -14.232561 -7.854256 16.766204 5.046504 11.729071 25.304507 15.697316 3.741476 2.678298 0.000000 -0.000000 0.000000 -3.946114 20.555256 13.207593 3.744509 0.848571 11.037268 2.213623 5.905276 -3.215074 0.850134 -5.624165 -13.895342 -0.430801 -7.941240 -13.103359 -25.703994 3.720485 16.300568 -43.563436 37.692777 12.280373 -37.475757 -54.930006 55.554232 -4.763895 -13.655979 -14.742025 26.731729 18.272034 3.722684 20.622507 22.117688 -4.170611 -27.093179 47.762308 -14.394756 3.499218 8.031314 33.617170 
0.656232 -0.633850 0.930375 -177.614424 4.392702 97.412416 11.014452 -3.860062 -47.414710 -8.416513 13.087944 25.472388 3.754179 9.749909 -7.233828 0.000000 -0.000000 0.000000 -11.086415 -6.995311 23.821430 1.977957 9.649204 34.774536 8.596493 -4.503343 -1.454711 0.000000 -0.000000 0.000000 -1.062712 17.565810 15.745219 1.872139 3.022334 9.648167 2.619486 7.137325 -1.949121 2.819158 -11.823620 -15.655879 1.662875 -8.630044 -9.769826 -28.657283 2.868738 14.158899 -49.022196 28.760510 12.449434 -14.863162 -59.224338 32.617813 1.155762 -11.006139 -22.496847 25.257621 23.457411 4.420658 24.059239 24.632200 -6.117307 -17.304020 10.698294 -17.689030 5.450299 1.734797 25.746417 
0.626048 -0.530506 0.923726 -173.419571 4.057156 97.448232 5.772339 -3.596697 -45.723621 -8.404274 14.233319 20.433950 3.599824 6.888451 -7.141804 0.000000 -0.000000 0.000000 -10.818610 -8.489981 23.373686 0.933980 5.614195 47.336842 8.526053 -5.664839 -1.120538 0.000000 -0.000000 0.000000 0.044200 16.154957 17.497880 0.791306 2.963516 9.315502 2.202939 7.371340 -2.547784 4.090687 -15.513616 -15.062881 4.648032 -8.097355 -10.540682 -32.032257 0.373347 11.635838 -52.060244 22.703184 10.721778 -0.030867 -56.582021 14.083353 5.683347 -8.418981 -20.553071 25.652059 23.064384 3.755343 28.905379 21.580069 -8.409532 -19.639140 4.743550 -30.555804 3.460317 1.091777 18.459178 
0.584398 -0.394161 0.908954 -167.541343 2.712651 98.243280 0.342003 -6.969357 -42.459740 -8.419113 16.962746 25.559857 12.521637 10.220652 -9.557024 0.000000 -0.000000 0.000000 -10.482386 -9.783851 16.783973 0.064350 -0.113062 69.448105 7.396608 -9.812641 -6.902472 0.000000 -0.000000 0.000000 -0.048157 14.302302 18.462486 0.170513 1.794022 8.171976 1.774457 5.326582 -1.465893 6.196945 -18.565745 -16.843445 7.448087 -4.988820 -10.997415 -38.234109 -2.767513 9.088942 -53.314770 12.782415 10.163964 15.487845 -52.141827 -6.890696 17.676729 -2.954042 -14.665173 28.816549 21.173876 3.327032 31.809995 16.291742 -6.261071 -21.669567 9.609437 -39.277424 -0.828464 3.748887 9.946481 
0.546487 -0.263621 0.891693 -163.392283 2.220525 97.948543 -1.870067 -8.238085 -42.198851 -7.584539 16.899475 44.305416 16.591679 14.141417 -21.348793 0.000000 -0.000000 0.000000 -8.408634 -7.829403 5.514794 -0.296232 -3.923115 91.252104 4.588781 -12.526779 -8.800054 0.000000 -0.000000 0.000000 -0.321306 10.944410 21.840269 -0.250328 0.361090 6.287112 1.422751 3.737661 -0.497624 7.564856 -18.725446 -18.742477 8.518740 -2.134498 -10.032454 -40.700611 -8.820162 7.599894 -53.590123 3.885874 10.489653 23.516301 -50.717385 -16.915073 23.015905 -2.216317 -11.024412 29.219384 22.411779 3.749491 33.603064 12.928508 -4.581883 -25.015087 13.346401 -42.809748 -4.371844 5.330257 4.330025 
0.508063 -0.136405 0.884321 -161.050363 0.841899 97.220872 -5.654395 -8.293828 -32.831831 -8.798863 15.107748 47.489304 17.969310 18.472597 -30.155253 0.000000 -0.000000 0.000000 -7.915635 -3.936135 -11.690721 1.262996 -5.579296 107.480379 3.428666 -12.389198 -12.216898 0.000000 -0.000000 0.000000 -3.008379 7.552393 24.583382 1.004390 -0.785808 6.323516 1.208070 1.733214 -0.264659 7.478427 -12.454721 -20.109443 6.068628 -2.987560 -8.409459 -37.186602 -15.008461 5.615218 -52.239816 -4.760532 14.292074 27.593388 -53.422146 -18.609806 25.255141 -4.512619 -9.155868 28.699600 23.509544 2.770293 33.330880 14.353079 -2.340847 -29.376782 15.308682 -48.429376 -8.136523 4.815264 -3.951011 
0.463509 -0.003226 0.884230 -160.101306 2.276679 96.727477 -7.718230 -3.448184 -21.007622 -9.560409 8.199585 47.835827 14.987799 19.462737 -34.926223 0.000000 -0.000000 0.000000 -7.488119 -0.718414 -29.796250 0.402659 -5.354272 111.393744 1.546052 -12.463035 -10.916601 0.000000 -0.000000 0.000000 -3.500262 2.605207 25.401731 2.334134 0.260991 2.541752 1.443502 0.430164 1.610025 5.551238 -7.003563 -17.425868 2.293666 -2.289257 -3.335179 -32.283324 -16.493264 3.555278 -49.286044 -10.923090 15.304855 30.800886 -62.433282 -18.496086 22.938955 -7.750054 -8.852450 27.942979 21.562069 0.925269 32.156893 16.395868 -2.286121 -33.358645 20.674888 -48.937204 -7.499282 5.689548 -8.082977 
0.403889 0.175845 0.897976 -155.761025 5.167621 97.880488 -3.332642 -0.888340 -7.215998 -11.538643 1.006441 45.670898 6.494940 14.364928 -26.945328 0.000000 -0.000000 0.000000 -9.650001 1.686990 -46.189745 -1.715302 -9.303989 98.982934 2.140131 -10.282004 -11.223142 0.000000 -0.000000 0.000000 -1.671909 -4.329273 21.538228 4.952509 0.222201 2.092578 1.689599 -2.105026 2.295175 3.476712 -0.917439 -13.988508 -1.948853 -0.899569 -0.367276 -27.070564 -14.333048 1.759081 -46.573808 -15.712120 15.153296 46.847013 -69.768101 -32.045506 20.556333 -10.692243 -5.833423 26.086220 17.594769 -0.726875 31.511148 17.996539 0.632186 -39.824250 31.682463 -49.221761 -6.639769 7.648166 -12.722025 
0.352487 0.327318 0.916300 -154.925976 7.352626 98.830109 0.906347 0.006726 3.663892 -11.203913 -3.461870 39.554254 0.750277 10.581400 -9.006636 0.000000 -0.000000 0.000000 -11.428594 3.697197 -52.317202 -0.382203 -12.612943 78.894899 3.242120 -5.783957 -10.935835 0.000000 -0.000000 0.000000 0.555739 -7.890633 15.930100 6.095996 0.336888 3.873856 0.680362 -3.463277 1.979392 3.065164 4.126424 -10.450861 -4.429885 -0.291091 0.549001 -24.127615 -10.778771 1.558952 -45.116010 -15.134148 15.761920 56.652066 -72.501476 -44.499257 22.844734 -10.448887 -8.568511 24.900044 12.472541 -2.138088 35.951366 18.993177 3.978468 -49.398772 40.450730 -53.814506 -9.832269 8.185479 -14.494747 
0.299911 0.482826 0.929547 -155.143423 9.084003 99.703730 3.322660 1.354776 14.541871 -5.665658 -6.345385 31.133989 1.097746 12.843101 -3.370138 0.000000 -0.000000 0.000000 -11.498753 5.468534 -52.579691 3.807429 -11.889798 52.908727 6.588294 -4.470152 -8.775030 0.000000 -0.000000 0.000000 2.224545 -10.647182 10.613915 6.385341 0.043344 3.199192 0.213700 -4.832607 1.430334 2.331638 4.818269 -4.186793 -5.471936 5.052629 0.962211 -22.875318 -5.053215 3.826750 -43.461441 -10.883617 13.951694 50.190875 -76.268916 -37.715159 21.292210 -10.758288 -9.396893 23.760070 7.432399 -2.589833 44.080804 18.817566 7.688052 -63.000311 44.607085 -65.514721 -7.123729 10.261529 -15.838199 
0.248724 0.636639 0.931499 -154.692938 9.096201 99.394915 2.636593 -0.027551 20.621222 -1.603273 -8.225568 34.197249 0.188426 17.328398 -5.105252 0.000000 -0.000000 0.000000 -11.138029 5.755479 -48.187623 4.794553 -8.660690 29.351468 10.621727 -3.457386 -4.119960 0.000000 -0.000000 0.000000 1.681527 -10.758423 7.593479 6.645111 -1.673747 1.478461 0.023823 -6.041613 2.501852 2.570154 7.025450 -1.660245 -5.608706 6.218752 2.431251 -21.612484 -0.386335 5.776876 -43.360309 -5.916915 13.418523 26.072366 -77.704883 -12.900851 19.286418 -10.941282 -9.870062 24.045975 2.175760 -2.998177 49.341497 15.304774 11.142153 -74.634061 48.841681 -72.409906 -9.195182 9.237949 -15.615644 
0.202821 0.788449 0.922592 -154.963231 9.186799 98.640194 3.362128 -0.547903 20.683235 -6.020623 -8.800390 47.554006 0.634653 14.529338 -6.269516 0.000000 -0.000000 0.000000 -8.476813 4.420953 -45.270341 5.340814 -6.749898 20.877288 10.951975 -2.417303 -1.647150 0.000000 -0.000000 0.000000 0.892115 -8.958796 4.505758 7.142615 -2.789465 3.402030 -0.540472 -6.893137 3.880362 2.357378 8.904950 -4.355638 -6.899650 5.372589 1.171123 -21.425328 2.950420 6.975581 -44.534909 -1.273705 12.902136 4.722978 -73.980544 7.640498 19.176442 -9.663922 -11.442831 25.040740 -1.858610 -2.997278 54.158462 12.030363 13.471519 -86.984061 50.985625 -83.651398 -7.649316 8.166062 -24.126383 
